<svg width="13" height="14" viewBox="0 0 13 14" fill="none" xmlns="http://www.w3.org/2000/svg">
<path d="M11.8574 5.63549H11.4512V5.26592C11.4512 2.60318 9.23009 0.436859 6.5 0.436859C3.76991 0.436859 1.54883 2.60318 1.54883 5.26592V5.63549H1.14258C0.512573 5.63549 0 6.13287 0 6.7442V8.96163C0 9.57296 0.512573 10.0703 1.14258 10.0703H1.61429C1.77159 10.5005 2.1949 10.8095 2.69141 10.8095C3.32141 10.8095 3.83398 10.3121 3.83398 9.70077V6.00506C3.83398 5.39373 3.32141 4.89635 2.69141 4.89635C2.56227 4.89635 2.43829 4.91752 2.32255 4.95602C2.48531 2.84504 4.29677 1.176 6.5 1.176C8.70323 1.176 10.5147 2.84504 10.6775 4.95602C10.5617 4.91752 10.4377 4.89635 10.3086 4.89635C9.67859 4.89635 9.16602 5.39373 9.16602 6.00506V9.70077C9.16602 10.3121 9.67859 10.8095 10.3086 10.8095C10.4421 10.8095 10.5702 10.787 10.6895 10.746V11.2037C10.6895 11.4074 10.5186 11.5733 10.3086 11.5733H7.57712C7.41982 11.1431 6.99651 10.8341 6.5 10.8341C5.87 10.8341 5.35742 11.3315 5.35742 11.9428C5.35742 12.5542 5.87 13.0515 6.5 13.0515C6.99651 13.0515 7.41982 12.7426 7.57712 12.3124H10.3086C10.9386 12.3124 11.4512 11.815 11.4512 11.2037V10.0703H11.8574C12.4874 10.0703 13 9.57296 13 8.96163V6.7442C13 6.13287 12.4874 5.63549 11.8574 5.63549ZM0.761719 8.96163V6.7442C0.761719 6.54046 0.93261 6.37463 1.14258 6.37463H1.54883V9.3312H1.14258C0.93261 9.3312 0.761719 9.16537 0.761719 8.96163ZM2.69141 5.63549C2.90137 5.63549 3.07227 5.80132 3.07227 6.00506V9.70077C3.07227 9.90452 2.90137 10.0703 2.69141 10.0703C2.48144 10.0703 2.31055 9.90452 2.31055 9.70077V6.00506C2.31055 5.80132 2.48144 5.63549 2.69141 5.63549ZM6.5 12.3124C6.29003 12.3124 6.11914 12.1466 6.11914 11.9428C6.11914 11.7391 6.29003 11.5733 6.5 11.5733C6.70997 11.5733 6.88086 11.7391 6.88086 11.9428C6.88086 12.1466 6.70997 12.3124 6.5 12.3124ZM10.3086 10.0703C10.0986 10.0703 9.92773 9.90452 9.92773 9.70077V6.00506C9.92773 5.80132 10.0986 5.63549 10.3086 5.63549C10.5186 5.63549 10.6895 5.80132 10.6895 6.00506V9.70077C10.6895 9.90452 10.5186 10.0703 10.3086 10.0703ZM12.2383 8.96163C12.2383 9.16537 12.0674 9.3312 11.8574 9.3312H11.4512V6.37463H11.8574C12.0674 6.37463 12.2383 6.54046 12.2383 6.7442V8.96163Z" fill="#4B3905"/>
</svg>
