<svg width="9" height="14" viewBox="0 0 9 14" fill="none" xmlns="http://www.w3.org/2000/svg">
<path d="M8.76627 3.57653C8.72 3.40824 8.62603 3.22892 8.55651 3.07193C7.72467 1.13207 5.90712 0.436859 4.43953 0.436859C2.47491 0.436859 0.311103 1.71518 0.0222168 4.3501V4.88843C0.0222168 4.91089 0.0301961 5.11271 0.0415303 5.21365C0.203473 6.46939 1.22461 7.80397 1.98724 9.0597C2.80771 10.4051 3.65908 11.7286 4.50255 13.0515C5.02266 12.1882 5.54089 11.3135 6.04914 10.4726C6.18766 10.2258 6.34846 9.9791 6.48713 9.74353C6.57955 9.58668 6.75613 9.42983 6.83679 9.28389C7.65724 7.82628 8.97784 6.35742 8.97784 4.91086V4.31661C8.97787 4.15979 8.77754 3.61034 8.76627 3.57653ZM4.4755 6.27893C3.898 6.27893 3.26589 5.99872 2.95388 5.22489C2.90739 5.10171 2.91114 4.85485 2.91114 4.83223V4.48463C2.91114 3.49813 3.77435 3.04952 4.52531 3.04952C5.44982 3.04952 6.16484 3.76725 6.16484 4.66436C6.16484 5.56143 5.40001 6.27893 4.4755 6.27893Z" fill="#4B3905"/>
</svg>
