<svg width="19" height="20" viewBox="0 0 19 20" fill="none" xmlns="http://www.w3.org/2000/svg">
<path d="M18.3929 17.4077L13.8709 12.844C15.0336 11.5028 15.6706 9.81531 15.6706 8.05856C15.6706 3.95407 12.2292 0.614685 7.99937 0.614685C3.76951 0.614685 0.328125 3.95407 0.328125 8.05856C0.328125 12.163 3.76951 15.5024 7.99937 15.5024C9.58731 15.5024 11.1005 15.0377 12.3943 14.1554L16.9507 18.7538C17.1412 18.9457 17.3973 19.0515 17.6718 19.0515C17.9316 19.0515 18.1781 18.9554 18.3652 18.7806C18.7628 18.4094 18.7755 17.7938 18.3929 17.4077ZM7.99937 2.55657C11.1259 2.55657 13.6694 5.02469 13.6694 8.05856C13.6694 11.0924 11.1259 13.5606 7.99937 13.5606C4.87284 13.5606 2.32932 11.0924 2.32932 8.05856C2.32932 5.02469 4.87284 2.55657 7.99937 2.55657Z" fill="#4B3905"/>
</svg>
